/* XPM */
static char * marine_xpm[] = {
"22 22 125 2",
"  	c None",
". 	c #FFFFFF",
"+ 	c #B6BFD0",
"@ 	c #7586A8",
"# 	c #7787A9",
"$ 	c #525456",
"% 	c #F2F2F2",
"& 	c #FAFAFB",
"* 	c #5E7198",
"= 	c #8AA5C6",
"- 	c #8EA9CA",
"; 	c #677BA1",
"> 	c #212223",
", 	c #ECECEC",
"' 	c #B7C0D1",
") 	c #7187AB",
"! 	c #9FBCD9",
"~ 	c #6D81A6",
"{ 	c #D7DADF",
"] 	c #F0F2F5",
"^ 	c #F2F3F6",
"/ 	c #F9F9FB",
"( 	c #687A9E",
"_ 	c #90ABCB",
": 	c #6D82A6",
"< 	c #495D84",
"[ 	c #64789E",
"} 	c #61759B",
"| 	c #6A7B9F",
"1 	c #FEFEFF",
"2 	c #CBD0DE",
"3 	c #6A7FA4",
"4 	c #6C81A5",
"5 	c #52648A",
"6 	c #6B80A6",
"7 	c #C2CAD9",
"8 	c #7587A9",
"9 	c #8AA4C4",
"0 	c #6C80A5",
"a 	c #8FABCA",
"b 	c #67789E",
"c 	c #FEFEFE",
"d 	c #DEE2EA",
"e 	c #61759C",
"f 	c #9EBBD9",
"g 	c #6C82A6",
"h 	c #C2CAD8",
"i 	c #8897B3",
"j 	c #829CBE",
"k 	c #6B80A5",
"l 	c #91ADCC",
"m 	c #EBEDF2",
"n 	c #5D7098",
"o 	c #9DBAD7",
"p 	c #6B80A4",
"q 	c #6D81A7",
"r 	c #C1C9D7",
"s 	c #9AA6BE",
"t 	c #7B94B7",
"u 	c #222223",
"v 	c #66789E",
"w 	c #F4F6F8",
"x 	c #5C6F97",
"y 	c #9AB6D4",
"z 	c #6B7FA4",
"A 	c #222224",
"B 	c #6D82A7",
"C 	c #C0C7D7",
"D 	c #ABB5CA",
"E 	c #768DB0",
"F 	c #91ACCC",
"G 	c #66789D",
"H 	c #FBFCFC",
"I 	c #607399",
"J 	c #526690",
"K 	c #556992",
"L 	c #5F7299",
"M 	c #596D95",
"N 	c #222324",
"O 	c #54658A",
"P 	c #566A93",
"Q 	c #576B93",
"R 	c #C7CDDB",
"S 	c #EDEDED",
"T 	c #EEEEEE",
"U 	c #2F2F2F",
"V 	c #DEDEDE",
"W 	c #F9F9F9",
"X 	c #373839",
"Y 	c #0A0C0E",
"Z 	c #13161A",
"` 	c #181D21",
" .	c #1C2127",
"..	c #090A0B",
"+.	c #BCBCBC",
"@.	c #B1B1B1",
"#.	c #1E2832",
"$.	c #3D6B98",
"%.	c #171C21",
"&.	c #E7E7E7",
"*.	c #24272A",
"=.	c #31567A",
"-.	c #3C6A96",
";.	c #0F1113",
">.	c #A2A2A3",
",.	c #202E3A",
"'.	c #345C83",
").	c #2A2E31",
"!.	c #FAFAFA",
"~.	c #1B1E21",
"{.	c #345B82",
"].	c #2B4B6B",
"^.	c #54575A",
"/.	c #919293",
"(.	c #161E26",
"_.	c #233342",
":.	c #243444",
"<.	c #293B4D",
"[.	c #15212C",
"}.	c #828384",
"|.	c #F3F3F3",
"1.	c #A7A7A7",
"2.	c #A6A6A6",
"3.	c #A8A8A8",
"4.	c #E0E0E0",
"            . . . . . . .                   ",
"            + @ @ @ # $ %                   ",
"          & * = - - ; > ,                   ",
"          ' ) ! ! ! ~ > { ] ^ /             ",
"        . ( _ ! ! ! : > < [ } | 1           ",
"        2 3 ! ! ! ! 4 > 5 ! ! 6 7           ",
"      . 8 9 ! ! ! ! 0 > 5 ! ! a b c         ",
"      d e f ! ! ! ! 0 > 5 ! ! ! g h         ",
"      i j ! ! ! ! ! k > 5 ! ! ! l b c       ",
"    m n o ! ! ! ! ! p > 5 ! ! ! ! q r       ",
"    s t ! ! ! ! ! ! p u 5 ! ! ! ! l v c     ",
"  w x y ! ! ! ! ! ! z A 5 ! ! ! ! ! B C     ",
"  D E ! ! ! ! ! ! ! z A 5 ! ! ! ! ! F G c   ",
"H I J K K K K * * L M N O P P P P P P Q R . ",
". S S T T T T T T T T U V T T T T T T T W . ",
"  X Y Z Z Z Z Z Z Z Z Z Z Z Z Z Z `  ...+.  ",
"  @.#.$.$.$.$.$.$.$.$.$.$.$.$.$.$.$.$.%.&.  ",
"    *.=.$.$.$.$.$.$.$.$.$.$.$.$.$.$.-.;..   ",
"    >.,.$.$.$.$.$.$.$.$.$.$.$.$.$.$.'.)..   ",
"    !.~.{.$.$.$.$.$.$.$.$.$.$.$.$.$.].^..   ",
"      /.(._._._._._._._._._.:.<.<.<.[.}.    ",
"      |.1.2.2.3.3.3.3.3.3.3.3.3.3.3.3.4.    "};
