/* XPM */
static char * shop_handg_xpm[] = {
"22 22 212 2",
"  	c None",
". 	c #E6E6E6",
"+ 	c #A7A7A7",
"@ 	c #8B8B8B",
"# 	c #969696",
"$ 	c #B9B9B9",
"% 	c #EEEEEE",
"& 	c #FFFFFF",
"* 	c #747371",
"= 	c #14120E",
"- 	c #312A16",
"; 	c #3F3311",
"> 	c #403514",
", 	c #352E18",
"' 	c #16140F",
") 	c #A0A09E",
"! 	c #A1A19F",
"~ 	c #252013",
"{ 	c #4E3F11",
"] 	c #2B2515",
"^ 	c #181610",
"/ 	c #1A1710",
"( 	c #362E17",
"_ 	c #7F6518",
": 	c #262218",
"< 	c #E8E8E8",
"[ 	c #2B2925",
"} 	c #4D3E11",
"| 	c #1E1C16",
"1 	c #B5B5B5",
"2 	c #EAEAEA",
"3 	c #E9E9E9",
"4 	c #A9A8A8",
"5 	c #2C2717",
"6 	c #6D5817",
"7 	c #797772",
"8 	c #F1F1F1",
"9 	c #23211A",
"0 	c #3C300D",
"a 	c #757471",
"b 	c #4E4C43",
"c 	c #846919",
"d 	c #39352B",
"e 	c #F5F5F5",
"f 	c #B7B7B7",
"g 	c #B8B8B8",
"h 	c #BCBCBC",
"i 	c #C8C8C8",
"j 	c #ADADAD",
"k 	c #2B271C",
"l 	c #352C10",
"m 	c #5A5A5A",
"n 	c #888888",
"o 	c #444341",
"p 	c #755D16",
"q 	c #2E2A1F",
"r 	c #DCDCDC",
"s 	c #D6D6D6",
"t 	c #C9C9C9",
"u 	c #F7F7F7",
"v 	c #CDCDCD",
"w 	c #0B0B0A",
"x 	c #171612",
"y 	c #191713",
"z 	c #1C1A15",
"A 	c #1E1C15",
"B 	c #3C3216",
"C 	c #493B10",
"D 	c #352A0B",
"E 	c #3B2F0C",
"F 	c #42340D",
"G 	c #483A0E",
"H 	c #4E3E0F",
"I 	c #554410",
"J 	c #98791C",
"K 	c #463B19",
"L 	c #2B2616",
"M 	c #2D2716",
"N 	c #3F361A",
"O 	c #15130B",
"P 	c #FBFBFB",
"Q 	c #191918",
"R 	c #1B1709",
"S 	c #27200B",
"T 	c #33290D",
"U 	c #3F330F",
"V 	c #4B3C11",
"W 	c #574613",
"X 	c #634F15",
"Y 	c #6F5917",
"Z 	c #7B6219",
"` 	c #876C1A",
" .	c #93751C",
"..	c #9F7F1E",
"+.	c #AB8820",
"@.	c #B79222",
"#.	c #C39B24",
"$.	c #CFA426",
"%.	c #DBAE28",
"&.	c #E7B72A",
"*.	c #342E1C",
"=.	c #F8F8F8",
"-.	c #2C2C2B",
";.	c #191508",
">.	c #158DA3",
",.	c #0A91B2",
"'.	c #1391AB",
").	c #4E927B",
"!.	c #1A94A9",
"~.	c #1C95A9",
"{.	c #BCAA3D",
"].	c #D8AB27",
"^.	c #403C2E",
"/.	c #6D6D6D",
"(.	c #131006",
"_.	c #A69230",
":.	c #B09A33",
"<.	c #C1A330",
"[.	c #D8AE2A",
"}.	c #A1801D",
"|.	c #79766E",
"1.	c #AFAFAF",
"2.	c #191711",
"3.	c #5A6F44",
"4.	c #398279",
"5.	c #3B877C",
"6.	c #7D8340",
"7.	c #958934",
"8.	c #62936A",
"9.	c #66976D",
"0.	c #909E54",
"a.	c #6D5A20",
"b.	c #B2B2B2",
"c.	c #EDEDED",
"d.	c #1B1A18",
"e.	c #636C39",
"f.	c #517C5C",
"g.	c #617F52",
"h.	c #8C8130",
"i.	c #68986B",
"j.	c #989F4E",
"k.	c #39321C",
"l.	c #1F1F1D",
"m.	c #261F0B",
"n.	c #5B6F44",
"o.	c #5C784F",
"p.	c #687E4B",
"q.	c #918938",
"r.	c #929241",
"s.	c #999A45",
"t.	c #CAA329",
"u.	c #D5A927",
"v.	c #363225",
"w.	c #504F4E",
"x.	c #1F1A09",
"y.	c #2B8284",
"z.	c #2E8686",
"A.	c #468570",
"B.	c #4C8E77",
"C.	c #319394",
"D.	c #349595",
"E.	c #A7841E",
"F.	c #69665C",
"G.	c #969595",
"H.	c #1B180C",
"I.	c #745E1C",
"J.	c #A3A2A1",
"K.	c #D2D2D2",
"L.	c #201E19",
"M.	c #496D4F",
"N.	c #0392B9",
"O.	c #0990B2",
"P.	c #4E8368",
"Q.	c #8D8230",
"R.	c #1791A8",
"S.	c #1193AE",
"T.	c #40968B",
"U.	c #43391E",
"V.	c #E0E0E0",
"W.	c #FEFEFE",
"X.	c #1C1B19",
"Y.	c #9E7F1F",
"Z.	c #A0892B",
"`.	c #AB922D",
" +	c #C19B25",
".+	c #CDA326",
"++	c #2F2B1E",
"@+	c #363634",
"#+	c #2E250C",
"$+	c #AA861F",
"%+	c #5A564B",
"&+	c #777776",
"*+	c #231C09",
"=+	c #7A611A",
"-+	c #949390",
";+	c #0A0A09",
">+	c #13120F",
",+	c #14120F",
"'+	c #15130F",
")+	c #15140F",
"!+	c #17150F",
"~+	c #171510",
"{+	c #191710",
"]+	c #1A1810",
"^+	c #1B1910",
"/+	c #1C1910",
"(+	c #1D1A11",
"_+	c #0F0D09",
":+	c #D3D3D3",
"<+	c #DEDEDE",
"[+	c #DBDBDB",
"}+	c #E1E1E1",
"                                            ",
"                . + @ # $ %                 ",
"            & * = - ; > , ' )               ",
"            ! ~ { ] ^ / ( _ : <             ",
"          & [ } | 1 2 3 4 5 6 7             ",
"          8 9 0 a & & & & b c d &           ",
"e f g h i j k l m n n n n o p q r s t t i u ",
"v w x y z A B C D E F G H I J K L M - N O t ",
"P Q R S T U V W X Y Z `  ...+.@.#.$.%.&.*.=.",
"& -.;.S T U V W X Y Z >.,.'.+.).!.~.{.].^.& ",
"& /.(.S T U V W X Y Z `  ...+._.:.<.[.}.|.  ",
"  1.2.S T U V W X Y 3.4.5.6.7.8.9.0.%.a.b.  ",
"  c.d.S T U V W X Y e.f.g.h.7.8.i.j.%.k.%   ",
"  & l.m.T U V W X Y n.o.p...q.r.s.t.u.v.&   ",
"  & w.x.T U V W X Y y.z.A...B.C.D.<.E.F.    ",
"    G.H.T U V W X Y Z `  ...+.@.#.$.I.J.    ",
"    K.L.T U V W X M.N.O.P.Q.R.S.T.$.U.V.    ",
"    W.X.T U V W X Y Z `  .Y.Z.`. +.+++&     ",
"    & @+#+U V W X Y Z `  ...+.@.#.$+%+&     ",
"      &+*+U V W X Y Z `  ...+.@.#.=+-+      ",
"      h ;+>+,+'+)+!+~+^ {+]+^+/+(+_+:+      ",
"      & <+[+[+[+[+[+[+[+[+[+[+[+[+}+        "};
