/* XPM */
static char * shop_furnish_xpm[] = {
"22 22 215 2",
"  	c None",
". 	c #FFFFFF",
"+ 	c #EFEFEF",
"@ 	c #3C3C3C",
"# 	c #575757",
"$ 	c #EBEBEB",
"% 	c #343434",
"& 	c #242424",
"* 	c #5E5E5E",
"= 	c #E7E7E7",
"- 	c #ECECEC",
"; 	c #EDEDED",
"> 	c #EEEEEE",
", 	c #E6E6E6",
"' 	c #DDDDDD",
") 	c #EAEAEA",
"! 	c #F9F9F9",
"~ 	c #E2E2E2",
"{ 	c #030703",
"] 	c #050C05",
"^ 	c #091009",
"/ 	c #090F09",
"( 	c #080F08",
"_ 	c #080E08",
": 	c #080D08",
"< 	c #0E100E",
"[ 	c #FDFDFD",
"} 	c #FAFAFA",
"| 	c #040604",
"1 	c #14D014",
"2 	c #16D316",
"3 	c #16CD16",
"4 	c #17C817",
"5 	c #18C218",
"6 	c #18BD18",
"7 	c #19B719",
"8 	c #1AB21A",
"9 	c #1BAC1B",
"0 	c #1BA71B",
"a 	c #1CA21C",
"b 	c #1D9C1D",
"c 	c #1E971E",
"d 	c #1E911E",
"e 	c #1F8B1F",
"f 	c #000000",
"g 	c #1A241A",
"h 	c #11AF11",
"i 	c #1DD01D",
"j 	c #26CC26",
"k 	c #27C727",
"l 	c #27C127",
"m 	c #28BD28",
"n 	c #29B729",
"o 	c #2AB22A",
"p 	c #2AAE2A",
"q 	c #2BA82B",
"r 	c #2CA42C",
"s 	c #2C9E2C",
"t 	c #2D992D",
"u 	c #2C932C",
"v 	c #208520",
"w 	c #3D483D",
"x 	c #0F8C0F",
"y 	c #48D448",
"z 	c #7FDE7F",
"A 	c #7FDB7F",
"B 	c #80D880",
"C 	c #80D580",
"D 	c #80D280",
"E 	c #81CF81",
"F 	c #81CC81",
"G 	c #82C982",
"H 	c #82C682",
"I 	c #83C383",
"J 	c #83C083",
"K 	c #7DB97D",
"L 	c #1F821F",
"M 	c #6B6F6B",
"N 	c #0D6A0D",
"O 	c #18C418",
"P 	c #26C226",
"Q 	c #2DBF2D",
"R 	c #2EBA2E",
"S 	c #2EB52E",
"T 	c #2FB02F",
"U 	c #30AB30",
"V 	c #30A630",
"W 	c #30A130",
"X 	c #319C31",
"Y 	c #329732",
"Z 	c #329232",
"` 	c #2D8B2D",
" .	c #1F811F",
"..	c #010201",
"+.	c #959595",
"@.	c #124D12",
"#.	c #18BF18",
"$.	c #62D062",
"%.	c #7BD47B",
"&.	c #7BD17B",
"*.	c #7CCD7C",
"=.	c #7CCB7C",
"-.	c #7DC77D",
";.	c #7DC47D",
">.	c #7DC17D",
",.	c #7EBE7E",
"'.	c #7EBA7E",
").	c #7EB87E",
"!.	c #5FA75F",
"~.	c #1F801F",
"{.	c #020202",
"].	c #BEBEBE",
"^.	c #133013",
"/.	c #19BA19",
"(.	c #1AB51A",
"_.	c #22B222",
":.	c #24AD24",
"<.	c #25A825",
"[.	c #25A325",
"}.	c #269D26",
"|.	c #279827",
"1.	c #289228",
"2.	c #288E28",
"3.	c #288828",
"4.	c #208420",
"5.	c #020302",
"6.	c #E3E3E3",
"7.	c #091109",
"8.	c #19B519",
"9.	c #1AB01A",
"0.	c #82D082",
"a.	c #88D088",
"b.	c #88CD88",
"c.	c #88CA88",
"d.	c #89C789",
"e.	c #89C489",
"f.	c #89C289",
"g.	c #8ABE8A",
"h.	c #88BD88",
"i.	c #1F7F1F",
"j.	c #040504",
"k.	c #FEFEFE",
"l.	c #080B08",
"m.	c #18A418",
"n.	c #1BAB1B",
"o.	c #1CA51C",
"p.	c #1CA01C",
"q.	c #1D9A1D",
"r.	c #1E951E",
"s.	c #1E901E",
"t.	c #1F8A1F",
"u.	c #1D7A1D",
"v.	c #175E17",
"w.	c #124312",
"x.	c #152B15",
"y.	c #111411",
"z.	c #262E26",
"A.	c #158515",
"B.	c #1CA61C",
"C.	c #1D9B1D",
"D.	c #1E961E",
"E.	c #1D8B1D",
"F.	c #186B18",
"G.	c #124B12",
"H.	c #133213",
"I.	c #0D170D",
"J.	c #070A07",
"K.	c #313831",
"L.	c #707270",
"M.	c #ABABAB",
"N.	c #4B524B",
"O.	c #116911",
"P.	c #188C18",
"Q.	c #126112",
"R.	c #124212",
"S.	c #132713",
"T.	c #060806",
"U.	c #1F241F",
"V.	c #555855",
"W.	c #8C8C8C",
"X.	c #CBCBCB",
"Y.	c #FCFCFC",
"Z.	c #858785",
"`.	c #161C16",
" +	c #323632",
".+	c #2D2D2D",
"++	c #C2C2C2",
"@+	c #F4F4F4",
"#+	c #E9E9E9",
"$+	c #323232",
"%+	c #ACACAC",
"&+	c #B2B2B2",
"*+	c #2B2B2B",
"=+	c #3A3A3A",
"-+	c #A8A8A8",
";+	c #D1D1D1",
">+	c #040404",
",+	c #222222",
"'+	c #1A1A1A",
")+	c #111111",
"!+	c #141414",
"~+	c #5A5A5A",
"{+	c #262626",
"]+	c #8E8E8E",
"^+	c #D9D9D9",
"/+	c #D3D3D3",
"(+	c #D5D5D5",
"_+	c #303030",
":+	c #292929",
"<+	c #A3A3A3",
"[+	c #4A4A4A",
"}+	c #D2D2D2",
"|+	c #565656",
"1+	c #444444",
"2+	c #F0F0F0",
"  . .                                       ",
"+ @ # .                                     ",
"$ % & * = - ; ; ; ; ; ; ; > > > , ' ' )     ",
"  ! ~ { ] ^ / / ( ( _ _ _ _ : : : : : < [   ",
"    } | 1 2 3 4 5 6 7 8 9 0 a b c d e f [   ",
"    . g h i j k l m n o p q r s t u v f .   ",
"      w x y z A B C D E F G H I J K L f .   ",
"      M N O P Q R S T U V W X Y Z `  ....   ",
"      +.@.#.$.%.&.*.=.-.;.>.,.'.).!.~.{..   ",
"      ].^./.(._.:.<.[.}.|.1.2.3.4.4.~.5..   ",
"      6.7.8.9.0.a.b.c.d.e.f.g.h.4.4.i.j..   ",
"      k.l.m.n.o.p.q.r.s.t.v 4.u.v.w.x.y..   ",
"      . z.A.B.p.C.D.E.F.G.H.I.J.K.L.M.,     ",
"        N.O.P.Q.R.S.T.U.V.W.X.Y..           ",
"        Z...`. +.+++@+.                     ",
"        [ #+k.$+%+                          ",
"            &+*+                            ",
"          . =+-+. . . . . . . . . .         ",
"          ;+>+,+,+,+,+'+)+)+!+!+)+)+k.      ",
"          . ~+{+]+^+/+/+/+(+_+:+(+)         ",
"          . <+[+}+        Y.|+1+2+          ",
"            . . .           . .             "};
